<?xml version="1.0" standalone="no"?>
<!DOCTYPE svg PUBLIC "-//W3C//DTD SVG 20010904//EN"
 "http://www.w3.org/TR/2001/REC-SVG-20010904/DTD/svg10.dtd">
<svg version="1.0" xmlns="http://www.w3.org/2000/svg"
 width="163.000000pt" height="163.000000pt" viewBox="0 0 163.000000 163.000000"
 preserveAspectRatio="xMidYMid meet">
<metadata>
Created by potrace 1.14, written by Peter Selinger 2001-2017
</metadata>
<g transform="translate(0.000000,163.000000) scale(0.100000,-0.100000)"
fill="#000000" stroke="none">
<path d="M616 1358 c-8 -4 -27 -45 -42 -91 -15 -45 -33 -92 -41 -104 -8 -11
-10 -23 -6 -26 16 -10 573 -6 579 4 3 6 0 18 -8 27 -7 9 -24 51 -38 92 -36
115 -21 108 -240 107 -104 0 -196 -4 -204 -9z m360 -17 c31 -1 33 -4 58 -82
14 -44 26 -81 26 -83 0 -1 -110 -3 -244 -3 -278 0 -252 -13 -211 102 l22 60
74 5 c41 3 112 4 159 3 47 -1 99 -2 116 -2z"/>
<path d="M679 1308 c-1 -7 -2 -20 -3 -28 0 -9 -13 -16 -29 -18 -24 -3 -28 -7
-25 -30 2 -21 9 -27 31 -29 24 -2 27 2 27 28 0 24 4 29 25 29 20 0 25 -5 25
-25 0 -14 3 -26 8 -26 50 -9 61 0 53 44 -1 5 11 7 26 5 16 -2 28 -9 29 -18 2
-36 5 -40 25 -37 43 7 46 57 3 57 -20 0 -24 5 -24 30 0 27 -3 30 -29 30 -25 0
-30 -4 -33 -27 -2 -22 -8 -28 -28 -28 -15 0 -25 6 -26 15 -2 36 -5 40 -29 40
-14 0 -26 -6 -26 -12z"/>
<path d="M900 1291 c0 -26 4 -31 25 -31 24 0 28 -5 28 -41 0 -10 9 -15 28 -15
25 0 29 4 29 27 0 23 -5 28 -27 31 -22 2 -28 8 -28 28 0 20 -6 26 -27 28 -25
3 -28 0 -28 -27z"/>
<path d="M38 1044 c-15 -8 -29 -22 -32 -31 -7 -22 -6 -437 1 -479 6 -41 46
-64 90 -52 51 13 56 33 55 227 -1 96 3 180 8 186 13 15 135 12 154 -4 33 -28
13 -62 -40 -67 -43 -4 -85 -41 -79 -71 2 -10 4 -23 4 -29 2 -22 173 -229 200
-241 34 -14 69 0 88 37 18 35 9 62 -41 128 l-44 57 29 29 c67 69 64 188 -6
261 -20 19 -48 40 -63 46 -43 18 -293 20 -324 3z"/>
<path d="M637 1043 c-14 -7 -28 -21 -31 -30 -3 -10 -5 -123 -5 -250 1 -211 2
-235 19 -255 18 -22 24 -23 182 -24 89 0 173 3 186 8 26 9 52 61 44 90 -10 41
-49 53 -167 53 l-110 0 -3 28 c-3 27 -3 27 60 27 68 1 92 12 107 52 7 18 5 33
-5 54 -21 40 -30 44 -101 44 -62 0 -62 0 -59 28 2 15 4 29 5 32 0 3 52 5 115
5 134 1 156 11 156 75 0 68 -17 74 -205 75 -118 1 -170 -2 -188 -12z"/>
<path d="M1165 1038 l-25 -19 0 -245 c0 -302 -9 -284 145 -284 123 0 195 22
257 78 62 56 82 103 82 197 1 95 -21 149 -86 213 -55 55 -115 74 -244 77 -91
3 -107 0 -129 -17z m245 -146 c41 -20 69 -66 74 -119 7 -78 -42 -122 -146
-133 l-58 -6 0 138 0 138 48 0 c26 0 63 -8 82 -18z"/>
<path d="M344 378 c-3 -5 3 -12 14 -15 17 -4 22 -14 24 -52 4 -60 22 -59 26 2
3 39 6 47 23 47 24 0 25 17 2 24 -27 8 -83 4 -89 -6z"/>
<path d="M554 334 c-17 -39 -22 -60 -15 -67 7 -7 12 -5 17 6 7 20 52 23 60 4
4 -11 34 -21 34 -11 0 14 -55 124 -62 124 -5 0 -20 -25 -34 -56z m46 -15 c0
-5 -7 -9 -15 -9 -9 0 -12 6 -9 15 6 15 24 11 24 -6z"/>
<path d="M759 388 c-1 -2 -2 -29 -3 -60 -1 -39 3 -59 11 -62 9 -4 13 4 13 21
l0 27 29 -28 c18 -17 34 -25 42 -21 9 6 9 11 -2 19 -8 6 -20 19 -28 29 -12 16
-11 21 14 47 25 26 26 30 10 30 -11 0 -29 -12 -42 -27 -21 -27 -22 -27 -23 -6
0 18 -17 42 -21 31z"/>
<path d="M978 373 c-24 -28 -28 -51 -16 -78 14 -30 50 -42 84 -26 28 12 34 37
7 26 -55 -23 -96 20 -57 59 12 12 20 13 35 6 27 -15 47 -1 24 17 -26 18 -59
16 -77 -4z"/>
<path d="M1180 390 c-2 -7 -2 -101 -1 -120 1 -9 16 0 41 25 l40 39 0 -31 c0
-35 15 -52 24 -27 8 21 8 99 -1 108 -4 3 -25 -11 -46 -31 -33 -32 -39 -34 -34
-16 2 12 -1 30 -9 40 -7 10 -14 16 -14 13z"/>
</g>
</svg>
