<?xml version="1.0" encoding="UTF-8"?>
<svg id="_Слой_2" data-name="Слой 2" xmlns="http://www.w3.org/2000/svg" xmlns:xlink="http://www.w3.org/1999/xlink" viewBox="0 0 314.96 173.42">
  <defs>
    <style>
      .cls-1 {
        fill: url(#linear-gradient);
      }

      .cls-1, .cls-2, .cls-3, .cls-4, .cls-5, .cls-6, .cls-7, .cls-8, .cls-9, .cls-10, .cls-11, .cls-12, .cls-13, .cls-14 {
        stroke-width: 0px;
      }

      .cls-2 {
        fill: url(#linear-gradient-6);
      }

      .cls-4 {
        fill: url(#linear-gradient-11);
      }

      .cls-5 {
        fill: url(#linear-gradient-5);
      }

      .cls-6 {
        fill: none;
      }

      .cls-7 {
        fill: #fff;
      }

      .cls-8 {
        fill: url(#linear-gradient-2);
      }

      .cls-9 {
        fill: url(#linear-gradient-7);
      }

      .cls-10 {
        fill: url(#linear-gradient-3);
      }

      .cls-11 {
        fill: url(#linear-gradient-9);
      }

      .cls-12 {
        fill: url(#linear-gradient-8);
      }

      .cls-13 {
        fill: url(#linear-gradient-10);
      }

      .cls-14 {
        fill: url(#linear-gradient-4);
      }
    </style>
    <linearGradient id="linear-gradient" x1="175.45" y1="70.75" x2="140.53" y2="70.75" gradientUnits="userSpaceOnUse">
      <stop offset=".24" stop-color="#fc3e46"/>
      <stop offset="1" stop-color="#be151c"/>
    </linearGradient>
    <linearGradient id="linear-gradient-2" x1="212.49" y1="117.13" x2="212.49" y2="63.39" xlink:href="#linear-gradient"/>
    <linearGradient id="linear-gradient-3" x1="195.58" y1="64.41" x2="195.58" y2="118.05" xlink:href="#linear-gradient"/>
    <linearGradient id="linear-gradient-4" x1="195.58" y1="117.14" x2="195.58" y2="63.51" xlink:href="#linear-gradient"/>
    <linearGradient id="linear-gradient-5" x1="195.59" y1="64.41" x2="195.59" y2="118.05" xlink:href="#linear-gradient"/>
    <linearGradient id="linear-gradient-6" x1="195.58" y1="67.28" x2="195.58" y2="105.72" xlink:href="#linear-gradient"/>
    <linearGradient id="linear-gradient-7" x1="127.11" y1="126.56" x2="102.05" y2="87.13" gradientUnits="userSpaceOnUse">
      <stop offset=".24" stop-color="#fe3e48"/>
      <stop offset="1" stop-color="#be151c"/>
    </linearGradient>
    <linearGradient id="linear-gradient-8" x1="115.87" y1="98.02" x2="96.7" y2="66.81" xlink:href="#linear-gradient"/>
    <linearGradient id="linear-gradient-9" x1="85.72" y1="68.69" x2="85.72" y2="117.41" xlink:href="#linear-gradient"/>
    <linearGradient id="linear-gradient-10" x1="152.2" y1="68.62" x2="152.2" y2="116.62" xlink:href="#linear-gradient"/>
    <linearGradient id="linear-gradient-11" x1="13016.67" y1="9616.84" x2="12981.75" y2="9616.84" gradientTransform="translate(13156.25 9728.25) rotate(-180)" xlink:href="#linear-gradient"/>
  </defs>
  <g id="Layer_2" data-name="Layer 2">
    <g>
      <rect class="cls-3" x="0" width="314.96" height="173.42"/>
      <g>
        <path class="cls-1" d="m171.14,77.93h-27.24c-3.97,0-7.18-3.21-7.18-7.18s3.21-7.18,7.18-7.18h27.24c3.97,0,7.18,3.21,7.18,7.18s-3.21,7.18-7.18,7.18Z"/>
        <g>
          <path class="cls-6" d="m210.21,104.15c1.01-.2,3.97-.9,6.76-2.64,3.86-2.4,5.65-5.6,5.65-10.07,0-4.86-1.75-8.56-5.35-11.32-1.99-1.53-4.02-2.33-4.98-2.66h-9.94v26.69h7.85Z"/>
          <path class="cls-8" d="m225.37,68.98c-8.6-6.82-19.3-5.42-29.58-5.42-.07,0-.14,0-.21,0-3.74,0-6.77,3.11-6.77,6.95,0,.14,0,.28.01.42.21-3.64,3.16-6.53,6.76-6.53s6.77,3.11,6.77,6.95c0,0,0,6.1,0,6.11,0-.05,6.16-.07,6.77-.04,2.26.11,4.54.49,6.55,1.6,4.43,2.43,6.95,7.48,6.95,12.42,0,4.47-1.8,7.67-5.65,10.07-2.21,1.38-4.76,2.13-7.34,2.46-.54.07-7.28.34-7.28.18v6.95c0,3.84-3.03,6.95-6.77,6.95h15.2c.3,0,.59-.02.89-.06.61-.08,6.16-.91,11.82-4.29,8.18-4.87,12.68-12.78,12.68-22.26,0-8.75-4.16-17.19-10.8-22.45Z"/>
          <path class="cls-10" d="m202.36,111.1v-6.95h-6.77c-3.74,0-6.77,3.11-6.77,6.95s3.03,6.95,6.77,6.95,6.77-3.11,6.77-6.95Z"/>
          <path class="cls-14" d="m202.36,111.1v-6.95h-6.77c-3.74,0-6.77,3.11-6.77,6.95s3.03,6.95,6.77,6.95,6.77-3.11,6.77-6.95Z"/>
          <path class="cls-5" d="m195.58,77.46h6.77v-6.11c0-3.84-3.03-6.95-6.77-6.95s-6.55,2.89-6.76,6.53c.21,3.64,3.16,6.53,6.76,6.53Z"/>
          <path class="cls-2" d="m195.58,63.57c-3.6,0-6.55,2.94-6.76,6.64,0,.14-.01.28-.01.43v40.46c0-3.91,3.03-7.07,6.77-7.07h6.77v-33.38c0-3.91-3.03-7.07-6.77-7.07Z"/>
        </g>
        <g>
          <g>
            <rect class="cls-7" x="138.8" y="43.5" width="5.36" height="5.36"/>
            <rect class="cls-7" x="144.16" y="38.14" width="5.36" height="5.36"/>
            <rect class="cls-7" x="149.51" y="43.5" width="5.36" height="5.36"/>
            <rect class="cls-7" x="154.87" y="38.14" width="5.36" height="5.36"/>
            <rect class="cls-7" x="160.23" y="43.5" width="5.36" height="5.36"/>
            <rect class="cls-7" x="165.58" y="38.14" width="5.36" height="5.36"/>
            <rect class="cls-7" x="170.94" y="43.5" width="5.36" height="5.36"/>
          </g>
          <path class="cls-7" d="m184.1,52.13h-.39l-4.95-15.26c-.72-2.21-2.75-3.69-5.07-3.69h-32.46c-2.3,0-4.33,1.47-5.06,3.65l-5.1,15.3h-.3c-.81,0-1.47.66-1.47,1.47v2.09h56.27v-2.09c0-.81-.66-1.47-1.47-1.47Zm-45.87-14.62c.43-1.29,1.64-2.16,3-2.16h32.46c1.38,0,2.59.88,3.01,2.19l4.73,14.59h-48.08l4.87-14.62Z"/>
        </g>
        <g>
          <polygon class="cls-7" points="161.28 128.25 158.47 128.25 153.68 133.82 153.68 128.42 151.52 128.42 151.52 139.9 153.68 139.9 153.68 134.44 159.04 139.9 161.84 139.9 156.2 134.15 161.28 128.25"/>
          <path class="cls-7" d="m177.09,138.13c-2.26,0-4.1-1.79-4.1-3.99s1.84-3.99,4.1-3.99c1.3,0,2.46.59,3.21,1.51.6-.41,1.18-.84,1.76-1.28-1.15-1.46-2.95-2.41-4.97-2.41-3.46,0-6.27,2.76-6.27,6.15s2.81,6.15,6.27,6.15c2.07,0,3.9-.99,5.05-2.51-.59-.41-1.18-.84-1.77-1.26-.75.97-1.94,1.6-3.28,1.6Z"/>
          <polygon class="cls-7" points="115.56 128.25 111.82 128.25 111.82 130.51 115.56 130.51 115.56 139.85 117.82 139.85 117.82 130.51 121.56 130.51 121.56 128.25 117.82 128.25 115.56 128.25"/>
          <path class="cls-7" d="m136.09,128.25h-1.62l-.32.73-4.81,10.88h2.26l.93-2.1h5.5l.93,2.1h2.26l-4.81-10.88-.32-.73Zm-2.67,7.5l1.87-4.22,1.87,4.22h-3.73Z"/>
          <polygon class="cls-7" points="201.67 128.45 194.72 135.64 194.72 128.45 192.49 128.45 192.49 139.9 193.83 139.9 200.91 132.36 200.91 139.9 202.97 139.9 202.97 128.45 201.67 128.45"/>
        </g>
        <g>
          <path class="cls-9" d="m119.3,119.41c-2.15,0-4.28-.96-5.69-2.79l-14.68-19.03c-2.42-3.14-1.84-7.65,1.3-10.07,3.14-2.42,7.65-1.84,10.07,1.3l14.68,19.03c2.42,3.14,1.84,7.65-1.3,10.07-1.31,1.01-2.85,1.5-4.38,1.5Z"/>
          <path class="cls-12" d="m117.98,67.82c-1.65-1.37-3.54-2.45-5.55-3.2-4.03-1.49-8.3-1.12-12.52-1.12-4.73,0-9.46.06-14.19.06-3.97,0-7.18,3.21-7.18,7.18s3.21,7.18,7.18,7.18h16.88c2.17,0,5.64-.12,6.76,1.34,2.05,2.66.81,6.75-3.03,6.66-4.33-.11-8.88,2.06-8.9,7.25-.01,3.97,3.19,7.19,7.16,7.21.03,0,.05,0,.08,0,2.94,0,10.13-.56,15.16-5.58,6.07-6.07,6.32-16.51,1.48-23.39-.94-1.34-2.07-2.55-3.33-3.59Z"/>
          <path class="cls-11" d="m85.72,63.57c-3.97,0-7.18,3.21-7.18,7.18v41.48c0,3.97,3.21,7.18,7.18,7.18s7.18-3.21,7.18-7.18v-41.48c0-3.97-3.21-7.18-7.18-7.18Z"/>
        </g>
        <path class="cls-13" d="m160.52,84.31h-9.45v-13.67c0-3.91-3.21-7.08-7.18-7.08s-7.18,3.17-7.18,7.08v40.87c0,3.91,3.21,7.08,7.18,7.08s7.18-3.17,7.18-7.08v-12.85h9.45c3.97,0,7.18-3.21,7.18-7.18s-3.21-7.18-7.18-7.18Z"/>
        <path class="cls-4" d="m143.89,104.23h27.24c3.97,0,7.18,3.21,7.18,7.18s-3.21,7.18-7.18,7.18h-27.24c-3.97,0-7.18-3.21-7.18-7.18s3.21-7.18,7.18-7.18Z"/>
      </g>
    </g>
  </g>
</svg>