<?xml version="1.0" encoding="UTF-8"?>
<svg id="_Слой_2" data-name="Слой 2" xmlns="http://www.w3.org/2000/svg" viewBox="0 0 434.02 76.05">
  <defs>
    <style>
      .cls-1 {
        fill: none;
        stroke: #fff;
        stroke-miterlimit: 10;
        stroke-width: 2px;
      }

      .cls-2 {
        fill: #fff;
        stroke-width: 0px;
      }
    </style>
  </defs>
  <g id="Layer_2" data-name="Layer 2">
    <g>
      <path class="cls-1" d="m11.57,1h52.91c5.83,0,10.57,4.74,10.57,10.57v52.91c0,5.83-4.74,10.57-10.57,10.57H11.57c-5.83,0-10.57-4.74-10.57-10.57V11.57C1,5.74,5.74,1,11.57,1Z" transform="translate(76.05 0) rotate(90)"/>
      <g>
        <path class="cls-1" d="m101.39,1h52.91c5.83,0,10.57,4.74,10.57,10.57v52.91c0,5.83-4.74,10.57-10.57,10.57h-52.91c-5.83,0-10.57-4.74-10.57-10.57V11.57c0-5.83,4.74-10.57,10.57-10.57Z" transform="translate(165.87 -89.82) rotate(90)"/>
        <path class="cls-2" d="m130.31,56.47c-18.87,0-29.64-12.94-30.09-34.47h9.45c.31,15.8,7.28,22.5,12.8,23.88v-23.88h8.9v13.63c5.45-.59,11.18-6.8,13.11-13.63h8.9c-1.48,8.42-7.69,14.63-12.11,17.18,4.42,2.07,11.49,7.49,14.18,17.29h-9.8c-2.1-6.56-7.35-11.63-14.28-12.32v12.32h-1.07Z"/>
      </g>
      <g>
        <path class="cls-1" d="m191.21,1h52.91c5.83,0,10.57,4.74,10.57,10.57v52.91c0,5.83-4.74,10.57-10.57,10.57h-52.91c-5.83,0-10.57-4.74-10.57-10.57V11.57c0-5.83,4.74-10.57,10.57-10.57Z" transform="translate(255.69 -179.64) rotate(90)"/>
        <path class="cls-2" d="m236.67,20.74c1.77-.03,2.69,1.02,2.49,2.6-.37,2.85-.77,5.69-1.21,8.53-.82,5.29-1.66,10.58-2.5,15.87-.35,2.24-.7,4.49-1.07,6.73-.06.42-.16.83-.3,1.23-.56,1.6-1.78,2.35-3.41,1.89-1.12-.31-2.27-.73-3.24-1.36-3.97-2.63-7.89-5.31-11.77-8.05-2.24-1.58-2.23-2.79-.26-4.66,3.8-3.59,7.59-7.22,11.37-10.85.41-.4.78-.86,1.06-1.35.17-.31.13-.73.19-1.1-.38.02-.78-.05-1.12.07-.5.19-.99.46-1.44.77-5.47,3.65-10.95,7.27-16.36,11-1.81,1.24-3.68,1.51-5.69.93-2.56-.75-5.1-1.56-7.61-2.44-.49-.17-1.07-.75-1.14-1.22-.07-.46.31-1.23.74-1.49,1.15-.7,2.41-1.26,3.66-1.77,9.87-4.09,19.74-8.17,29.62-12.25,2.04-.85,4.08-1.71,6.13-2.53.7-.28,1.44-.43,1.87-.56Z"/>
      </g>
      <path class="cls-1" d="m281.03,1h52.91c5.83,0,10.57,4.74,10.57,10.57v52.91c0,5.83-4.74,10.57-10.57,10.57h-52.91c-5.83,0-10.57-4.74-10.57-10.57V11.57c0-5.83,4.74-10.57,10.57-10.57Z" transform="translate(345.51 -269.46) rotate(90)"/>
      <g>
        <path class="cls-1" d="m369.54,1h52.91c5.83,0,10.57,4.74,10.57,10.57v52.91c0,5.83-4.74,10.57-10.57,10.57h-52.91c-5.83,0-10.57-4.74-10.57-10.57V11.57c0-5.83,4.74-10.57,10.57-10.57Z" transform="translate(434.02 -357.97) rotate(90)"/>
        <path class="cls-2" d="m410.18,21.36h-28.37c-6.08,0-11.01,4.93-11.01,11.01v13.73c0,6.08,4.93,11.01,11.01,11.01h28.37c6.08,0,11.01-4.93,11.01-11.01v-13.73c0-6.08-4.93-11.01-11.01-11.01Zm-6.11,18.58l-15.17,10.55c-.57.4-1.35-.01-1.35-.71v-21.1c0-.7.78-1.1,1.35-.71l15.17,10.55c.49.34.49,1.07,0,1.41Z"/>
      </g>
      <g>
        <path class="cls-2" d="m321.06,14.26h-27.15c-5.26,0-9.53,4.27-9.53,9.53v28.46c0,5.26,4.27,9.53,9.53,9.53h27.15c5.26,0,9.53-4.27,9.53-9.53v-28.46c0-5.26-4.27-9.53-9.53-9.53Zm4.63,36.7c0,3.27-2.65,5.92-5.92,5.92h-24.58c-3.27,0-5.92-2.65-5.92-5.92v-25.88c0-3.27,2.65-5.92,5.92-5.92h24.58c3.27,0,5.92,2.65,5.92,5.92v25.88Z"/>
        <path class="cls-2" d="m307.48,23.9c-7.79,0-14.13,6.34-14.13,14.13s6.34,14.13,14.13,14.13,14.13-6.34,14.13-14.13c0-7.79-6.34-14.13-14.13-14.13Zm0,23.35c-5.09,0-9.23-4.14-9.23-9.23,0-5.09,4.14-9.23,9.23-9.23s9.23,4.14,9.23,9.23c0,5.09-4.14,9.23-9.23,9.23Z"/>
        <rect class="cls-2" x="317.44" y="23.2" width="4.2" height="4.2" rx="1.94" ry="1.94"/>
      </g>
    </g>
    <path class="cls-2" d="m38.11,12.49c-13.91,0-25.23,11.32-25.23,25.23,0,4.25,1.07,8.43,3.11,12.14,0,0-2.23,8.5-2.71,10.22-.19.68-.47,1.81-.57,2.53-.05.38.1,1.04.79.94.67-.1,1.61-.44,1.76-.5,2.46-.93,9.83-3.71,9.83-3.71,3.92,2.37,8.4,3.61,13.01,3.61,13.91,0,25.23-11.32,25.23-25.23s-11.32-25.23-25.23-25.23Zm2.07,46.44c-4.9.47-9.72-.74-13.78-3.41-.32-.21-.7-.32-1.08-.32-.23,0-.47.04-.69.13l-6.52,2.47s-.07-.02-.06-.06l1.94-7.69c.13-.51.04-1.05-.23-1.51-1.93-3.27-2.95-7.01-2.95-10.82,0-11.75,9.56-21.31,21.31-21.31s21.58,9.83,21.3,21.81c-.25,10.67-8.61,19.69-19.23,20.71Z"/>
    <path class="cls-2" d="m35.15,40.23s4.2,3.8,6.01,3.8c.98,0,.85-1.14,1.76-2.27,1.03-1.28,5.25.59,6.51,1.6,1.26,1.02,2.21,2.99.57,4.9-1.28,1.49-5.4,3.41-11.89-.5-3.56-2.15-5.71-4.24-5.71-4.24,0,0-1.61-1.34-4.12-4.65-4.57-6.04-3.1-10.34-1.76-11.77,1.72-1.83,3.79-1.09,4.93.05,1.14,1.14,3.44,5.14,2.28,6.3-1.02,1.02-2.17,1.01-2.07,1.99.18,1.8,3.49,4.8,3.49,4.8Z"/>
  </g>
</svg>